<svg width="50" height="39" viewBox="0 0 50 39" fill="none" xmlns="http://www.w3.org/2000/svg">
    <path d="M19.7417 35.303C29.0031 35.303 36.5108 27.7952 36.5108 18.5339C36.5108 9.27261 29.0031 1.76483 19.7417 1.76483C10.4804 1.76483 2.97266 9.27261 2.97266 18.5339C2.97266 27.7952 10.4804 35.303 19.7417 35.303Z"
          fill="white"/>
    <path d="M39.0235 19.5C39.0235 19.712 39.0236 19.9239 39 20.1359C38.9764 20.6775 38.9529 21.1957 38.8822 21.7138C37.7989 31.4402 29.5326 39 19.5236 39C17.2862 39 15.1431 38.6232 13.1649 37.9402C10.9746 37.1866 8.97283 36.0562 7.20652 34.6196C6.26449 33.8424 5.36957 32.971 4.59239 32.0525C2.11957 29.1322 0.518116 25.4819 0.0942029 21.5018C0.0471014 20.8424 0 20.183 0 19.5C0 19.4058 0 19.288 0 19.1938C0 18.6286 0.0471014 18.0634 0.0942029 17.4982C0.800725 10.5743 5.13406 4.71014 11.163 1.86051C11.3043 1.78986 11.4221 1.74275 11.5634 1.6721C14.0127 0.588768 16.6739 0 19.5 0C20.183 0 20.8424 0.0235507 21.4783 0.0942029C23.6449 0.306159 25.7174 0.894928 27.625 1.7663C27.6721 1.78986 27.7192 1.81341 27.7663 1.83696C29.2971 2.56703 30.7337 3.48551 32.029 4.56884C32.971 5.34601 33.8424 6.24094 34.6196 7.18297C36.0562 8.94928 37.1866 10.9511 37.9402 13.1413C38.6467 15.1431 39.0235 17.2627 39.0235 19.5Z"
          fill="url(#paint0_linear)"/>
    <path opacity="0.08"
          d="M32.0521 4.56882L4.56839 32.0525C2.11911 29.1322 0.517663 25.4819 0.09375 21.5018L21.5014 0.0941772C23.668 0.306134 25.7405 0.894902 27.6481 1.76628C27.6952 1.78983 27.7423 1.81338 27.7894 1.83693C29.3202 2.567 30.7568 3.48548 32.0521 4.56882Z"
          fill="url(#paint1_linear)"/>
    <path opacity="0.08"
          d="M37.9379 13.1413L13.139 37.9402C10.9488 37.1866 8.94697 36.0562 7.18066 34.6196L34.6173 7.18298C36.0539 8.92574 37.1843 10.9511 37.9379 13.1413Z"
          fill="url(#paint2_linear)"/>
    <path d="M19.7399 36.4595C10.1746 36.4595 2.39258 28.6775 2.39258 19.1122C2.39258 14.4903 4.18918 10.1413 7.45164 6.86726C7.90209 6.41334 8.6353 6.41334 9.08691 6.86379C9.53968 7.31482 9.54084 8.04688 9.09038 8.49907C6.26277 11.3377 4.70556 15.1061 4.70556 19.1122C4.70556 27.4025 11.4496 34.1465 19.7399 34.1465C28.0302 34.1465 34.7743 27.4025 34.7743 19.1122C34.7743 11.2116 28.6478 4.71446 20.8964 4.12176V10.3419C20.8964 10.9803 20.3783 11.4984 19.7399 11.4984C19.1015 11.4984 18.5834 10.9803 18.5834 10.3419V2.92132C18.5834 2.28294 19.1015 1.76483 19.7399 1.76483C29.3052 1.76483 37.0872 9.54684 37.0872 19.1122C37.0872 28.6775 29.3052 36.4595 19.7399 36.4595Z"
          fill="white"/>
    <path d="M43.06 26.5683C43.0118 22.7202 40.0129 19.6143 36.3153 19.6143C33.8406 19.6143 31.684 21.0088 30.5093 23.082C30.1036 22.9441 29.6709 22.8669 29.2208 22.8669C27.2328 22.8669 25.5734 24.3259 25.1657 26.2739C23.4755 27.1198 22.2988 28.9201 22.2988 30.9982C22.2988 33.8801 24.5567 36.2388 27.3176 36.2388H37.7011C37.7599 36.2388 37.8158 36.232 37.8746 36.23C37.9324 36.232 37.9892 36.2388 38.048 36.2388H42.2014C44.7715 36.2388 46.8742 34.0434 46.8742 31.36C46.8713 28.9837 45.2215 26.9937 43.06 26.5683Z"
          fill="url(#paint3_linear)"/>
    <path opacity="0.28"
          d="M45.9516 23.6771C45.9034 19.829 42.9045 16.7231 39.2069 16.7231C36.7322 16.7231 34.5756 18.1177 33.4009 20.1908C32.9952 20.0529 32.5625 19.9757 32.1124 19.9757C30.1244 19.9757 28.465 21.4347 28.0573 23.3827C26.3671 24.2286 25.1904 26.029 25.1904 28.107C25.1904 30.9889 27.4483 33.3477 30.2092 33.3477H40.5927C40.6515 33.3477 40.7074 33.3408 40.7662 33.3389C40.824 33.3408 40.8808 33.3477 40.9396 33.3477H45.093C47.6631 33.3477 49.7658 31.1523 49.7658 28.4689C49.7629 26.0925 48.1131 24.1025 45.9516 23.6771Z"
          fill="url(#paint4_linear)"/>
    <path d="M13.958 13.3997L21.4428 18.8138C22.1795 19.3493 22.2633 20.4167 21.6192 21.0609C20.975 21.705 19.9081 21.6212 19.3721 20.8845L13.958 13.3997Z"
          fill="white"/>
    <defs>
        <linearGradient id="paint0_linear" x1="8.51514" y1="37.3459" x2="27.8261" y2="5.98483"
                        gradientUnits="userSpaceOnUse">
            <stop stop-color="#FC6D22"/>
            <stop offset="0.9979" stop-color="#FC6122"/>
        </linearGradient>
        <linearGradient id="paint1_linear" x1="25.0418" y1="3.75542" x2="-11.6245" y2="41.6576"
                        gradientUnits="userSpaceOnUse">
            <stop stop-color="#FEFEFC"/>
            <stop offset="1" stop-color="white" stop-opacity="0.1"/>
        </linearGradient>
        <linearGradient id="paint2_linear" x1="33.8162" y1="12.2455" x2="-2.85008" y2="50.1477"
                        gradientUnits="userSpaceOnUse">
            <stop stop-color="#FEFEFC"/>
            <stop offset="1" stop-color="white" stop-opacity="0.1"/>
        </linearGradient>
        <linearGradient id="paint3_linear" x1="48.855" y1="41.8936" x2="20.0983" y2="19.3416"
                        gradientUnits="userSpaceOnUse">
            <stop stop-color="#8492A5"/>
            <stop offset="1" stop-color="#EFEFEF"/>
        </linearGradient>
        <linearGradient id="paint4_linear" x1="51.7466" y1="39.0025" x2="22.9899" y2="16.4504"
                        gradientUnits="userSpaceOnUse">
            <stop stop-color="#8492A5"/>
            <stop offset="1" stop-color="#EFEFEF"/>
        </linearGradient>
    </defs>
</svg>
