<?xml version="1.0" encoding="utf-8"?><!-- Generator: Adobe Illustrator 19.0.0, SVG Export Plug-In . SVG Version: 6.00 Build 0)  --><svg version="1.1" id="ah-icons" xmlns="http://www.w3.org/2000/svg" xmlns:xlink="http://www.w3.org/1999/xlink" x="0px" y="0px"	 width="24px" height="24px" viewBox="0 0 24 24" style="enable-background:new 0 0 24 24;" xml:space="preserve"><style type="text/css">	.st0{fill:#37474F;}</style><g id="vds-vps">	<path id="vds-vps-ico" class="st0" d="M23,18.5c0,1.9-1.6,3.5-3.5,3.5c-0.8,0-9.5,0-9.5,0c-1.7,0-3-1.3-3-3s1.3-3,3-3h0.1		c0.5-2.3,2.5-4,4.9-4c2.1,0,3.8,1.2,4.6,3C21.5,15.1,23,16.6,23,18.5z M1,6V3c0-0.6,0.4-1,1-1h16c0.6,0,1,0.4,1,1v3		c0,0.6-0.4,1-1,1H2C1.4,7,1,6.6,1,6z M3,5c0,0.6,0.4,1,1,1s1-0.4,1-1c0-0.6-0.4-1-1-1S3,4.4,3,5z M6,19H2c-0.6,0-1-0.4-1-1v-3		c0-0.6,0.4-1,1-1h7.8c-0.2,0.3-0.4,0.7-0.5,1.1C7.4,15.4,6,17,6,19z M5,17c0-0.6-0.4-1-1-1s-1,0.4-1,1c0,0.6,0.4,1,1,1S5,17.6,5,17		z M1,12V9c0-0.6,0.4-1,1-1h16c0.6,0,1,0.4,1,1v3c0,0.2,0,0.3-0.1,0.4C17.8,11.5,16.5,11,15,11c-1.7,0-3.3,0.8-4.4,2H2		C1.4,13,1,12.6,1,12z M3,11c0,0.6,0.4,1,1,1s1-0.4,1-1c0-0.6-0.4-1-1-1S3,10.4,3,11z"/></g><g id="cloud-storage">	<path id="cloud-storage-ico" class="st0" d="M23,18.5c0,1.9-1.6,3.5-3.5,3.5c-0.8,0-9.5,0-9.5,0c-1.7,0-3-1.3-3-3s1.3-3,3-3h0.1		c0.5-2.3,2.5-4,4.9-4c2.1,0,3.8,1.2,4.6,3C21.5,15.1,23,16.6,23,18.5z M6.1,20H4c-0.6,0-1-0.4-1-1V9h5c1.1,0,2-0.9,2-2V2h8		c0.6,0,1,0.4,1,1v9.5c-1.1-1-2.5-1.5-4-1.5c-2.6,0-4.9,1.7-5.7,4.1C7.4,15.4,6,17,6,19C6,19.3,6.1,19.7,6.1,20z M9,2L3,8h5		c0.6,0,1-0.4,1-1V2z"/></g><g id="ip-transit">	<path id="ip-transit-ico" class="st0" d="M11.5,0C6.3,0,2,4.3,2,9.5c0,7,6.8,12.8,8.9,14.3c0.1,0.1,0.3,0.2,0.6,0.2		c0.3,0,0.5-0.1,0.6-0.2c2.1-1.5,8.9-7.3,8.9-14.3C21,4.3,16.7,0,11.5,0z M11.5,15C8.5,15,6,12.5,6,9.5C6,6.5,8.5,4,11.5,4		S17,6.5,17,9.5C17,12.5,14.5,15,11.5,15z M9,7h1v5H9V7z M15,8v1c0,0.6-0.4,1-1,1h-2v2h-1V7h3C14.6,7,15,7.4,15,8z M14,8h-2v1h2V8z"		/></g><g id="business">	<path id="business-ico" class="st0" d="M12,14h-2c-0.6,0-1-0.4-1-1v-1h4v1C13,13.6,12.6,14,12,14z M14,13c0,1.1-0.9,2-2,2h-2		c-1.1,0-2-0.9-2-2v-1l-7-2v7c0,1.1,0.9,2,2,2h16c1.1,0,2-0.9,2-2v-7l-7,2V13z M19,5h-3V4c0-1.1-0.9-2-2-2H8C6.9,2,6,2.9,6,4v1H3		C1.9,5,1,5.9,1,7v2l7,2h6l7-2V7C21,5.9,20.1,5,19,5z M7,4h8v1H7V4z"/></g><g id="admin">	<path id="admin-ico" class="st0" d="M18.9,13.2C19,12.8,19,12.4,19,12s0-0.8-0.1-1.2l2.1-2c0.3-0.3,0.4-0.8,0.2-1.2l-1.2-2.1		C19.7,5,19.2,4.9,18.8,5L16,5.8c-0.6-0.5-1.4-0.9-2.1-1.2l-0.7-2.8c-0.1-0.4-0.5-0.8-1-0.8H9.8c-0.5,0-0.9,0.3-1,0.8L8.1,4.5		C7.3,4.8,6.6,5.3,6,5.8L3.2,5C2.8,4.9,2.3,5,2.1,5.4L0.9,7.6C0.6,8,0.7,8.5,1,8.8l2.1,2C3,11.2,3,11.6,3,12s0,0.8,0.1,1.2l-2.1,2		c-0.3,0.3-0.4,0.8-0.2,1.2l1.2,2.1C2.3,19,2.8,19.1,3.2,19L6,18.2c0.6,0.5,1.4,0.9,2.1,1.2l0.7,2.8c0.1,0.4,0.5,0.8,1,0.8h2.4		c0.5,0,0.9-0.3,1-0.8l0.7-2.8c0.8-0.3,1.5-0.7,2.1-1.2l2.8,0.8c0.4,0.1,0.9-0.1,1.1-0.5l1.2-2.1c0.2-0.4,0.2-0.9-0.2-1.2L18.9,13.2		z M15.8,17.1l-2.7-1.7C12.5,15.8,11.8,16,11,16c-2.2,0-4-1.8-4-4c0-0.1,0-0.2,0-0.4l3,1.9l2-1v-2.3L9.1,8.5C9.7,8.2,10.3,8,11,8		c2.2,0,4,1.8,4,4c0,0,0,0.1,0,0.1l2.8,1.7C17.4,15,16.7,16.2,15.8,17.1z"/></g><g id="ssl">	<path id="ssl-ico" class="st0" d="M18,8h-1V7c0-3.3-2.7-6-6-6S5,3.7,5,7v1H4c-1.1,0-2,0.9-2,2v9c0,1.1,0.9,2,2,2h14		c1.1,0,2-0.9,2-2v-9C20,8.9,19.1,8,18,8z M7,7c0-2.2,1.8-4,4-4s4,1.8,4,4v1H7V7z M9,13H7v1h1c0.6,0,1,0.4,1,1v1c0,0.6-0.4,1-1,1H6		v-1h2v-1H7c-0.6,0-1-0.4-1-1v-1c0-0.6,0.4-1,1-1h2V13z M13,13h-2v1h1c0.6,0,1,0.4,1,1v1c0,0.6-0.4,1-1,1h-2v-1h2v-1h-1		c-0.6,0-1-0.4-1-1v-1c0-0.6,0.4-1,1-1h2V13z M17,17h-2c-0.6,0-1-0.4-1-1v-4h1v4h2V17z"/></g><g id="colocation">	<path id="colocation-ico" class="st0" d="M21.3,16.2c1.1,0.5,1.7,1.6,1.7,2.7V20c0,0.6-0.4,1-1,1H11c-0.6,0-1-0.4-1-1v-1.1		c0-1.2,0.7-2.2,1.7-2.7l2.7-1.3c-0.9-0.8-1.5-2.1-1.5-3.6C13,9,14.6,7,16.5,7S20,9,20,11.4c0,1.5-0.6,2.8-1.5,3.6L21.3,16.2z		 M9,18.9c0-1.6,0.9-3,2.3-3.6l1.6-0.7c-0.1-0.2-0.2-0.4-0.3-0.6H2c-0.6,0-1,0.4-1,1v3c0,0.6,0.4,1,1,1L9,18.9L9,18.9z M4,18		c-0.6,0-1-0.4-1-1c0-0.6,0.4-1,1-1s1,0.4,1,1C5,17.6,4.6,18,4,18z M2,7h11.9c0.7-0.6,1.6-1,2.6-1c0.8,0,1.5,0.3,2.2,0.7		C18.9,6.5,19,6.3,19,6V3c0-0.6-0.4-1-1-1H2C1.4,2,1,2.4,1,3v3C1,6.6,1.4,7,2,7z M4,4c0.6,0,1,0.4,1,1c0,0.6-0.4,1-1,1S3,5.6,3,5		C3,4.4,3.4,4,4,4z M2,13h10.2c-0.1-0.5-0.2-1.1-0.2-1.6c0-1.3,0.4-2.4,1-3.4l0,0H2C1.4,8,1,8.4,1,9v3C1,12.6,1.4,13,2,13z M4,10		c0.6,0,1,0.4,1,1c0,0.6-0.4,1-1,1s-1-0.4-1-1C3,10.4,3.4,10,4,10z"/></g><g id="servers">	<path id="servers-ico" class="st0" d="M19,9H2c-0.6,0-1,0.4-1,1v4c0,0.6,0.4,1,1,1h17c0.6,0,1-0.4,1-1v-4C20,9.4,19.6,9,19,9z		 M4,13c-0.6,0-1-0.4-1-1c0-0.6,0.4-1,1-1s1,0.4,1,1C5,12.6,4.6,13,4,13z M8,13c-0.6,0-1-0.4-1-1c0-0.6,0.4-1,1-1s1,0.4,1,1		C9,12.6,8.6,13,8,13z M18,13h-7v-1h7V13z M19,16H2c-0.6,0-1,0.4-1,1v4c0,0.6,0.4,1,1,1h17c0.6,0,1-0.4,1-1v-4		C20,16.4,19.6,16,19,16z M4,20c-0.6,0-1-0.4-1-1c0-0.6,0.4-1,1-1s1,0.4,1,1C5,19.6,4.6,20,4,20z M8,20c-0.6,0-1-0.4-1-1		c0-0.6,0.4-1,1-1s1,0.4,1,1C9,19.6,8.6,20,8,20z M18,20h-7v-1h7V20z M19,2H2C1.4,2,1,2.4,1,3v4c0,0.6,0.4,1,1,1h17c0.6,0,1-0.4,1-1		V3C20,2.4,19.6,2,19,2z M4,6C3.4,6,3,5.6,3,5c0-0.6,0.4-1,1-1s1,0.4,1,1C5,5.6,4.6,6,4,6z M8,6C7.4,6,7,5.6,7,5c0-0.6,0.4-1,1-1		s1,0.4,1,1C9,5.6,8.6,6,8,6z M18,6h-7V5h7V6z"/></g><g id="static-cdn">	<path id="static-cdn-ico" class="st0" d="M19,15c2.8,0,5-2.2,5-5c0-2.6-2-4.7-4.6-5c-1.2-3-4.1-5-7.4-5C8.3,0,5.1,2.6,4.3,6		C1.9,6.2,0,8.1,0,10.5C0,13,2,15,4.5,15H6v1.6l-1.5,1.5C4.3,18,4.2,18,4,18c-1.1,0-2,0.9-2,2s0.9,2,2,2s2-0.9,2-2		c0-0.2,0-0.3-0.1-0.5L8,17.4V15c0.9,0,1.9,0,3,0v3.2c-1.2,0.4-2,1.5-2,2.8c0,1.7,1.3,3,3,3c1.7,0,3-1.3,3-3c0-1.3-0.8-2.4-2-2.8V15		c1.1,0,2.1,0,3,0v2.4l2.1,2.1c0,0.2-0.1,0.3-0.1,0.5c0,1.1,0.9,2,2,2s2-0.9,2-2s-0.9-2-2-2c-0.2,0-0.3,0-0.5,0.1L18,16.6V15H19z		 M12,22c-0.6,0-1-0.4-1-1s0.4-1,1-1s1,0.4,1,1S12.6,22,12,22z"/></g><g id="video-cdn">	<path id="video-cdn-ico" class="st0" d="M19,15c2.8,0,5-2.2,5-5c0-2.6-2-4.7-4.6-5c-1.2-3-4.1-5-7.4-5C8.3,0,5.1,2.6,4.3,6		C1.9,6.2,0,8.1,0,10.5C0,13,2,15,4.5,15H6v1.6l-1.5,1.5C4.3,18,4.2,18,4,18c-1.1,0-2,0.9-2,2s0.9,2,2,2s2-0.9,2-2		c0-0.2,0-0.3-0.1-0.5L8,17.4V15c0.9,0,1.9,0,3,0v3.2c-1.2,0.4-2,1.5-2,2.8c0,1.7,1.3,3,3,3c1.7,0,3-1.3,3-3c0-1.3-0.8-2.4-2-2.8V15		c1.1,0,2.1,0,3,0v2.4l2.1,2.1c0,0.2-0.1,0.3-0.1,0.5c0,1.1,0.9,2,2,2s2-0.9,2-2s-0.9-2-2-2c-0.2,0-0.3,0-0.5,0.1L18,16.6V15H19z		 M12,22c-0.6,0-1-0.4-1-1s0.4-1,1-1s1,0.4,1,1S12.6,22,12,22z M15.8,8.9l-5,3c-0.3,0.2-0.8,0-0.8-0.4v-6c0-0.4,0.4-0.6,0.8-0.4l5,3		C16.1,8.3,16.1,8.7,15.8,8.9z"/></g><g id="dns">	<path id="dns-ico" class="st0" d="M24,10c0-1.7-1.3-3-3-3c-0.1,0-0.2,0-0.3,0c-1.2-2.2-3.3-3.8-5.7-4.6C14.7,1.1,13.5,0,12,0		S9.3,1.1,9.1,2.4C6.6,3.2,4.6,4.9,3.3,7C3.2,7,3.1,7,3,7c-1.7,0-3,1.3-3,3c0,1.3,0.9,2.4,2,2.8c0.2,1.9,0.8,3.6,1.9,5		C3.3,18.4,3,19.2,3,20c0,1.7,1.3,3,3,3c1.1,0,2.1-0.7,2.6-1.6C9.7,21.8,10.8,22,12,22s2.3-0.2,3.4-0.6c0.5,0.9,1.5,1.6,2.6,1.6		c1.7,0,3-1.3,3-3c0-0.8-0.3-1.6-0.9-2.1c1-1.4,1.7-3.2,1.9-5C23.1,12.4,24,11.3,24,10z M19.2,7.6c-0.7,0.5-1.1,1.2-1.2,2.1L16.6,10		c-0.6-1.4-2-2.5-3.6-2.9V5.8c0.9-0.3,1.5-1,1.8-1.8C16.7,4.6,18.2,5.9,19.2,7.6z M9.2,4c0.3,0.9,1,1.5,1.8,1.8v1.3		C9.4,7.4,8.1,8.5,7.4,10L6,9.6C5.9,8.8,5.4,8.1,4.8,7.6C5.8,5.9,7.3,4.6,9.2,4z M3.6,12.9c0.8-0.2,1.5-0.7,2-1.4L7,11.9		c0,0,0,0.1,0,0.1c0,1.3,0.5,2.4,1.3,3.3l-1.4,1.8C6.6,17.1,6.3,17,6,17c-0.3,0-0.5,0-0.8,0.1C4.3,15.9,3.7,14.5,3.6,12.9z M9,19.9		c0-0.6-0.2-1.1-0.5-1.6l1.4-1.8c0.6,0.3,1.4,0.5,2.1,0.5s1.5-0.2,2.1-0.5l1.4,1.8c-0.3,0.5-0.5,1-0.5,1.6c-0.9,0.4-1.9,0.6-3,0.6		S9.9,20.3,9,19.9z M18,17c-0.3,0-0.6,0.1-0.9,0.1l-1.4-1.8c0.8-0.9,1.3-2,1.3-3.3c0,0,0-0.1,0-0.1l1.5-0.3c0.4,0.7,1.1,1.2,2,1.4		c-0.2,1.6-0.8,3-1.7,4.2C18.5,17,18.3,17,18,17z"/></g><g id="domains">	<path id="domains-ico" class="st0" d="M11,1C4.9,1,0,5.9,0,12s4.9,11,11,11s11-4.9,11-11S17.1,1,11,1z M7,13c0,0.6-0.4,1-1,1H5		c-0.2,0-0.4-0.1-0.5-0.2C4.4,13.9,4.2,14,4,14H3c-0.6,0-1-0.4-1-1v-3h1v3h1v-3h1v3h1v-3h1V13z M13,13c0,0.6-0.4,1-1,1h-1		c-0.2,0-0.4-0.1-0.5-0.2C10.4,13.9,10.2,14,10,14H9c-0.6,0-1-0.4-1-1v-3h1v3h1v-3h1v3h1v-3h1V13z M19,13c0,0.6-0.4,1-1,1h-1		c-0.2,0-0.4-0.1-0.5-0.2C16.4,13.9,16.2,14,16,14h-1c-0.6,0-1-0.4-1-1v-3h1v3h1v-3h1v3h1v-3h1V13z M20,14v-1h1v1H20z"/></g><g id="mail">	<path id="mail-ico" class="st0" d="M19,4H4C2.9,4,2,4.9,2,6l0,11c0,1.1,0.9,2,2,2h15c1.1,0,2-0.9,2-2V6C21,4.9,20.1,4,19,4z M19,8		l-7.5,5L4,8V6l7.5,5L19,6V8z"/></g><g id="icq">	<path id="icq-ico" class="st0" d="M21.3,12.4c-0.3-0.4-0.6-0.7-1-0.9c0.3-0.2,0.5-0.5,0.7-0.7c0.5-0.8,0.7-1.7,0.4-2.5		c-0.2-0.9-1.1-1.6-2.1-1.9c-0.5-0.2-1-0.2-1.5-0.1c0.2-0.6,0.3-1.3,0.1-2c-0.3-1.1-1.1-1.9-2.2-2.3c-1.2-0.4-2.5-0.3-3.4,0.4		C12,2.7,11.6,3,11.4,3.5C11.2,3.2,11,3,10.7,2.8C9.9,2.3,8.9,2.1,8.1,2.4C7.3,2.6,6.6,3.3,6.4,4.1C6.1,5,6.3,6,6.9,6.9		C6.2,6.7,5.6,6.7,5,6.8c-1.2,0.3-2.2,1-2.7,2c-0.5,1-0.4,2.1,0.2,2.9c0.3,0.5,0.8,0.8,1.4,1c-0.2,0.2-0.3,0.3-0.4,0.5		C3.1,14,3,14.7,3.2,15.5c0.2,0.8,0.9,1.5,1.8,1.7c0.3,0.1,0.6,0.1,0.9,0.1c0.1,0,0.2,0,0.4,0c-0.4,0.8-0.5,1.6-0.3,2.5		c0.3,1,1.1,1.9,2.2,2.3c0.4,0.2,0.9,0.2,1.3,0.2c0.7,0,1.4-0.2,2-0.7c0.5-0.4,0.9-0.9,1.1-1.6c0.2,0.2,0.3,0.3,0.5,0.4		c0.4,0.3,0.9,0.4,1.4,0.4c0.2,0,0.5,0,0.7-0.1c0.8-0.2,1.5-0.9,1.8-1.8c0.1-0.4,0.2-0.9,0.1-1.3c0.5,0.2,1,0.3,1.5,0.3		c0.3,0,0.6,0,0.8-0.1c1-0.3,1.9-1.1,2.3-2.2C22.2,14.6,22,13.3,21.3,12.4z M17.3,8L17.3,8c0.6-0.5,1.3-0.4,1.7-0.3		c0.6,0.2,1,0.6,1.2,1c0.1,0.4,0,0.9-0.3,1.3c-0.3,0.5-0.9,0.8-1.5,0.9c-1.1,0.1-3.1,0.4-3.8,0.4c-0.1-0.2-0.1-0.4-0.2-0.6		C14.4,10.6,16.2,8.8,17.3,8z M13.2,3.5c0.6-0.4,1.3-0.5,2.1-0.3C16,3.5,16.5,4,16.6,4.6c0.2,0.6,0,1.3-0.5,1.8l0,0		c-0.7,0.9-2.1,2.4-2.8,3.2c-0.2-0.1-0.4-0.2-0.6-0.3c-0.1-0.9-0.2-3-0.3-4.1C12.4,4.5,12.7,3.9,13.2,3.5z M7.7,4.5		c0.1-0.4,0.4-0.7,0.8-0.8C8.9,3.6,9.5,3.7,10,4c0.3,0.2,0.7,0.6,0.8,1.4c0.1,1,0.3,3,0.3,3.8c-0.2,0-0.4,0.1-0.6,0.2		C10,8.7,8.8,7.1,8.1,6.2C7.7,5.7,7.5,5.1,7.7,4.5z M5.3,11.6C4.6,11.7,4,11.5,3.6,11c-0.3-0.4-0.3-1-0.1-1.6		c0.3-0.6,0.9-1.1,1.7-1.2C5.7,8.1,6.7,8,7.6,8.8c0.9,0.8,1.3,1.3,1.6,1.6c-0.1,0.2-0.2,0.4-0.3,0.6C8.3,11.2,6.6,11.5,5.3,11.6z		 M10.6,20.5c-0.5,0.4-1.3,0.5-2,0.2c-0.7-0.3-1.2-0.7-1.3-1.4c-0.2-0.6,0-1.3,0.5-1.9l0,0c0.7-0.8,1.8-2.1,2.6-2.9		c0.2,0.1,0.4,0.2,0.7,0.3c0.1,0.9,0.3,2.7,0.4,3.9C11.4,19.5,11.1,20.1,10.6,20.5z M11.7,13.8c-0.9,0-1.7-0.8-1.7-1.7		c0-0.9,0.8-1.7,1.7-1.7s1.7,0.8,1.7,1.7C13.4,13,12.6,13.8,11.7,13.8z M15.7,18.6c-0.1,0.5-0.5,0.8-0.8,0.9c-0.4,0.1-0.7,0-1-0.2		c-0.5-0.3-0.8-0.9-0.9-1.6c-0.1-0.9-0.3-2.2-0.3-2.9c0.2-0.1,0.3-0.1,0.5-0.2c0.6,0.6,1.6,1.6,2.2,2.4l0,0		C15.7,17.4,15.9,18,15.7,18.6z M20.5,15.3c-0.3,0.7-0.7,1.2-1.4,1.3c-0.6,0.2-1.3,0-1.9-0.5l0,0c-0.8-0.7-2.2-1.9-3-2.6		c0.1-0.2,0.2-0.4,0.3-0.6c1-0.1,2.9-0.3,4-0.4c0.7-0.1,1.3,0.2,1.7,0.7C20.7,13.8,20.7,14.5,20.5,15.3z"/></g><g id="skype">	<path id="skype-ico" class="st0" d="M20.5,12.5c0-0.2,0-0.3,0-0.5c0-4.7-3.8-8.6-8.6-8.6c-0.2,0-0.3,0-0.5,0C10.5,2.6,9.2,2,7.7,2		C4.6,2,2,4.6,2,7.7c0,1.5,0.6,2.8,1.5,3.8c0,0.2,0,0.3,0,0.5c0,4.7,3.8,8.6,8.6,8.6c0.2,0,0.3,0,0.5,0c1,0.9,2.3,1.5,3.8,1.5		c3.2,0,5.7-2.6,5.7-5.7C22,14.8,21.4,13.5,20.5,12.5z M12,17.7c-3.4,0-4.8-1.8-4.8-3.3c0-0.8,0.7-1.1,1.2-1.1		c1.1,0,1.2,1.2,1.7,1.8c1,1.2,4.1,1,4.1-0.8c0-1.1-2.4-1.5-3.2-1.6c-1-0.2-3.6-0.8-3.6-3.2c0-2.1,1.9-3.1,4.6-3.1		c2.1,0,4.3,1,4.3,2.7c0,0.7-0.5,1.2-1.2,1.2c-1.7,0-0.9-2.1-3.1-2.1c-0.7,0-2.1,0.2-2.1,1.1c0,0.9,0.9,1,1.6,1.2		c1.8,0.5,5.4,0.7,5.4,3.9C16.9,16.1,15.2,17.7,12,17.7z"/></g><g id="ah">	<path id="ah-ico" class="st0" d="M18,19.7c0,0.1,0,0.1,0,0.1c-0.2,0.3-1.2,1.4-3,1.4c-1.6,0-3-0.7-3-2.5c0-1.7,1.2-3.1,3.7-3.1		c0.8,0,1.7,0.2,2.1,0.3c0.1,0,0.2,0.1,0.2,0.2V19.7z M33.8,7c-3,0-4.8,2.3-4.8,2.3V0.3C29,0.1,28.8,0,28.7,0l-3.5,0.9		C25.1,0.9,25,1,25,1.1v19.4c0,0.8-0.7,1.5-1.5,1.5h0c-0.8,0-1.5-0.7-1.5-1.5v-8C22,8.2,20,7,16,7c-3,0-6.1,1.6-6.9,2		C9,9,9,9.2,9,9.3l0.6,1.5C9.7,11,9.8,11,10,11c0.7-0.4,3-1.5,4.8-1.5C17,9.5,18,10,18,12v2c0,0-1.7-0.5-3-0.5c-4.8,0-7,2.5-7,5.7		C8,22,10.3,24,13,24c3.2,0,5-1.6,5.5-2.2c0.9,1.5,3,2.2,5,2.2c2.6,0,5.5-1.1,5.5-5v-5.8c0-2,2-3.2,3.5-3.2c1.2,0,2.5,0.5,2.5,2.5		v10.2c0,0.1,0.1,0.2,0.2,0.2h3.5c0.1,0,0.2-0.1,0.2-0.2V12C39,8.9,36.7,7,33.8,7"/></g><g id="close-big">	<polygon id="close-big-ico" class="st0" points="19,7 17,5 12,10 7,5 5,7 10,12 5,17 7,19 12,14 17,19 19,17 14,12 	"/></g><g id="twitter">	<path id="twitter-ico" class="st0" d="M23,5c-1.1,0.8-2.5,1-2.5,1s1.9-1.5,2-3c-1.4,1.1-2.9,1.3-2.9,1.3C18.8,3.5,17.7,3,16.5,3		C14,3,12,5,12,7.5v1C10.1,8.4,5.9,7.8,2.5,4C2.5,4,2,4.9,2,6c0,2.7,2,4,2,4c-1,0-2-0.5-2-0.5C2,13,5.5,14,5.5,14h-2c0,0,1,2.7,4,3		c0,0-1.8,2-6.5,2c0,0,3,2,7,2c7.2,0,13-5.8,13-13l0-0.5C21,7.5,22.5,6.5,23,5z"/></g><g id="facebook">	<path id="facebook-ico" class="st0" d="M15,6h3V2h-3c-2.8,0-5,2.2-5,5v2H7v4h3v9h4v-9h3l1-4h-4V7C14,6.4,14.4,6,15,6z"/></g><g id="menu">	<path id="menu-ico" class="st0" d="M22,13H2v-2h20V13z M17,16H2v2h15V16z M22,6H2v2h20V6z"/></g><g id="copy-content">	<path id="copy-content-ico" class="st0" d="M16,4H5v13h1V5h10V4z M19,7H8v13h11V7z M18,19H9V8h9V19z"/></g><g id="close-small">	<polygon id="close-small-ico" class="st0" points="16.4,8.4 15.6,7.6 12,11.3 8.4,7.6 7.6,8.4 11.3,12 7.6,15.6 8.4,16.4 12,12.7 		15.6,16.4 16.4,15.6 12.7,12 	"/></g><g id="back">	<polygon id="back-ico" class="st0" points="20,11 8,11 12.5,6.5 11,5 4,12 11,19 12.5,17.5 8,13 20,13 	"/></g><g id="check">	<polygon id="check-ico" class="st0" points="9,20 2,13 4,11 9,16 20,5 22,7 	"/></g><g id="network-card">	<path id="network-card-ico" class="st0" d="M19,5H6C4.9,5,4,5.9,4,7v10c0,1.1,0.9,2,2,2h13c1.1,0,2-0.9,2-2V7C21,5.9,20.1,5,19,5z		 M17,16h-1v-2h-1v2h-1v-2h-1v2h-1v-2h-1v2h-1v-2H9v2H8v-6h2V9c0-0.6,0.4-1,1-1h3c0.6,0,1,0.4,1,1v1h2V16z"/></g><g id="ssl-small">	<path id="ssl-small-ico" class="st0" d="M17,8h-1V7c0-2.2-1.8-4-4-4S8,4.8,8,7v1H7c-1.1,0-2,0.9-2,2v7c0,1.1,0.9,2,2,2h10		c1.1,0,2-0.9,2-2v-7C19,8.9,18.1,8,17,8z M10,7c0-1.1,0.9-2,2-2s2,0.9,2,2v1h-4V7z"/></g><g id="raid">	<path id="raid-ico" class="st0" d="M11,11v-1h2v1H11z M18,5v14c0,0.6-0.4,1-1,1h-2l-1-1h-4l-1,1H7c-0.6,0-1-0.4-1-1V5		c0-0.6,0.4-1,1-1h10C17.6,4,18,4.4,18,5z M9,17c0-0.6-0.4-1-1-1s-1,0.4-1,1c0,0.6,0.4,1,1,1S9,17.6,9,17z M9,6c0-0.6-0.4-1-1-1		S7,5.4,7,6c0,0.6,0.4,1,1,1S9,6.6,9,6z M14.3,14l-1-2.1c0.4-0.1,0.7-0.5,0.7-0.9v-1c0-0.6-0.4-1-1-1h-3v5h1v-2h1l1,2H14.3z M17,17		c0-0.6-0.4-1-1-1s-1,0.4-1,1c0,0.6,0.4,1,1,1S17,17.6,17,17z M17,6c0-0.6-0.4-1-1-1s-1,0.4-1,1c0,0.6,0.4,1,1,1S17,6.6,17,6z"/></g><g id="traffic">	<path id="traffic-ico" class="st0" d="M12.5,5C7.8,5,4,8.8,4,13.5c0,1.7,0.5,3.2,1.3,4.5h14.4c0.8-1.3,1.3-2.8,1.3-4.5		C21,8.8,17.2,5,12.5,5z M6,14H5v-1h1V14z M12,6h1v1h-1V6z M8,9H7V8h1V9z M18,9l-3.1,3.9c0.2,0.8,0,1.8-0.6,2.4c-1,1-2.6,1-3.5,0		s-1-2.6,0-3.5c0.7-0.7,1.6-0.9,2.4-0.6L17,8h1V9z M19,14v-1h1v1H19z"/></g><g id="ssd">	<path id="ssd-ico" class="st0" d="M18,5v14c0,0.6-0.4,1-1,1h-2l-1-1h-4l-1,1H7c-0.6,0-1-0.4-1-1V5c0-0.6,0.4-1,1-1h10		C17.6,4,18,4.4,18,5z M9,6c0-0.6-0.4-1-1-1S7,5.4,7,6c0,0.6,0.4,1,1,1S9,6.6,9,6z M17,6c0-0.6-0.4-1-1-1s-1,0.4-1,1		c0,0.6,0.4,1,1,1S17,6.6,17,6z M17,17c0-0.6-0.4-1-1-1s-1,0.4-1,1c0,0.6,0.4,1,1,1S17,17.6,17,17z M9,17c0-0.6-0.4-1-1-1		s-1,0.4-1,1c0,0.6,0.4,1,1,1S9,17.6,9,17z"/></g><g id="memory">	<path id="memory-ico" class="st0" d="M21,7H4C3.4,7,3,7.4,3,8v6c0,0.6,0.4,1,1,1h1v2h1v-2h1v2h1v-2h1v2h1v-2h1v2h1v-2h1v2h1v-2h1v2		h1v-2h1v2h1v-2h1v2h1v-2h1c0.6,0,1-0.4,1-1V8C22,7.4,21.6,7,21,7z"/></g><g id="cpu">	<path id="cpu-ico" class="st0" d="M22,8V7h-3V6c0-0.6-0.4-1-1-1h-1V2h-1v3h-1V2h-1v3h-1V2h-1v3h-1V2h-1v3H9V2H8v3H7		C6.4,5,6,5.4,6,6v1H3v1h3v1H3v1h3v1H3v1h3v1H3v1h3v1H3v1h3v1c0,0.6,0.4,1,1,1h1v3h1v-3h1v3h1v-3h1v3h1v-3h1v3h1v-3h1v3h1v-3h1		c0.6,0,1-0.4,1-1v-1h3v-1h-3v-1h3v-1h-3v-1h3v-1h-3v-1h3V9h-3V8H22z"/></g><g id="more">	<path id="more-ico" class="st0" d="M7,12c0,1.1-0.9,2-2,2s-2-0.9-2-2s0.9-2,2-2S7,10.9,7,12z M12,10c-1.1,0-2,0.9-2,2s0.9,2,2,2		s2-0.9,2-2S13.1,10,12,10z M19,10c-1.1,0-2,0.9-2,2s0.9,2,2,2s2-0.9,2-2S20.1,10,19,10z"/></g><g id="arrow">	<polygon id="arrow-ico" class="st0" points="11,17 9.5,15.5 13,12 9.5,8.5 11,7 16,12 	"/></g><g id="user">	<path id="user-ico" class="st0" d="M12,1C5.9,1,1,5.9,1,12s4.9,11,11,11s11-4.9,11-11S18.1,1,12,1z M8,9c0-2.8,1.8-5,4-5s4,2.2,4,5		c0,1.7-0.7,3.2-1.7,4.1l5.2,2.6c0.2,0.1,0.4,0.3,0.5,0.5C18.4,19.1,15.4,21,12,21s-6.4-1.9-7.9-4.7c0.1-0.2,0.3-0.4,0.5-0.5		l5.2-2.6C8.7,12.2,8,10.7,8,9z"/></g><g id="tickets">	<path id="tickets-ico" class="st0" d="M18,5c0.6,0,1,0.4,1,1v5c0,0.6-0.4,1-1,1v2.5c0,0.4-0.5,0.7-0.9,0.4L14,12H9		c-0.6,0-1-0.4-1-1V6c0-0.6,0.4-1,1-1H18z M13.6,13H9c-1.1,0-2-0.9-2-2V8H6C5.4,8,5,8.4,5,9v5c0,0.6,0.4,1,1,1v2.5		c0,0.4,0.5,0.7,0.9,0.4L10,15h5.8L13.6,13z"/></g><g id="external-link">	<path id="external-link-ico" class="st0" d="M16,7H8C7.4,7,7,7.4,7,8v8c0,0.6,0.4,1,1,1h8c0.6,0,1-0.4,1-1V8C17,7.4,16.6,7,16,7		z M15,14h-1v-3.3l-4.6,4.6l-0.7-0.7l4.6-4.6H10V9h5V14z"/></g><g id="down">	<polygon id="down-ico" class="st0" points="12,14 6.5,8.5 5,10 12,17 19,10 17.5,8.5 	"/></g><g id="check-small">	<polygon id="check-small-ico" class="st0" points="16,8 10.5,13.5 8,11 6.2,12.8 10.5,17 17.8,9.8 	"/></g><g id="pdf">	<path id="pdf-ico" class="st0" d="M20,19v1H2V5h1v14H20z M7,10h2V9H7V10z M12,9h2v3h-2V9z M22,3H4v15h18V3z M10,10c0,0.6-0.4,1-1,1		H7v2H6V8h3c0.6,0,1,0.4,1,1V10z M15,12c0,0.6-0.4,1-1,1h-3V8h3c0.6,0,1,0.4,1,1V12z M20,9h-3v1h2v1h-2v2h-1V8h4V9z"/></g><g id="quote">	<path id="quote-ico" class="st0" d="M6,14h3c0.6,0,1,0.4,1,1v6c0,0.6-0.4,1-1,1H3c-0.6,0-1-0.4-1-1v-7C2,6.3,6.7,2,10,2v3		C10,5,6,6,6,14z M22,5V2c-3.3,0-8,4.3-8,12v7c0,0.6,0.4,1,1,1h6c0.6,0,1-0.4,1-1v-6c0-0.6-0.4-1-1-1h-3C18,6,22,5,22,5z"/></g><g id="websa">	<path id="websa-ico" class="st0" d="M11,7c0.8,0,1.5,0.3,2.1,0.9c1.2,1.2,1.2,3.1,0,4.2l-8,8C4.5,20.7,3.8,21,3,21		s-1.5-0.3-2.1-0.9c-1.2-1.2-1.2-3.1,0-4.2l8-8C9.5,7.3,10.2,7,11,7 M21.1,15.9L15,9.7c0,0.1,0,0.2,0,0.3c0,1.1-0.4,2.1-1.2,2.8		l-2.1,2.1l5.2,5.2c0.6,0.6,1.4,0.9,2.1,0.9s1.5-0.3,2.1-0.9C22.3,18.9,22.3,17.1,21.1,15.9z M6,9.3V5c0-1.7-1.3-3-3-3S0,3.3,0,5		v10.3L6,9.3z M22,15.3V5c0-1.7-1.3-3-3-3s-3,1.3-3,3v4.3L22,15.3z"/></g><g id="help">	<path id="help-icon" class="st0" d="M11.5,4c4.1,0,7.5,3.4,7.5,7.5S15.6,19,11.5,19S4,15.6,4,11.5S7.4,4,11.5,4 M11.5,3		C6.8,3,3,6.8,3,11.5S6.8,20,11.5,20s8.5-3.8,8.5-8.5S16.2,3,11.5,3L11.5,3z M12,13.3c0-0.4,0.2-0.8,0.4-1.1l0.8-0.8		C13.7,11,14,10.3,14,9.7V9c0-1.1-0.9-2-2-2h-1C9.9,7,9,7.9,9,9v1h1V9c0-0.6,0.4-1,1-1h1c0.6,0,1,0.4,1,1v0.7c0,0.4-0.2,0.8-0.4,1.1		l-0.8,0.8C11.3,12,11,12.7,11,13.3V14h1V13.3z M11.5,15c-0.4,0-0.8,0.3-0.8,0.8s0.3,0.8,0.8,0.8s0.8-0.3,0.8-0.8S11.9,15,11.5,15z"		/></g><g id="basket">	<path id="basket-ico" class="st0" d="M10,20c0,1.1-0.9,2-2,2s-2-0.9-2-2s0.9-2,2-2S10,18.9,10,20z M17,18c-1.1,0-2,0.9-2,2		s0.9,2,2,2s2-0.9,2-2S18.1,18,17,18z M18,3v2H3C2.3,5,1.9,5.6,2,6.3l1.7,6c0.1,0.4,0.5,0.7,1,0.7H18v2H5v2h14c0.6,0,1-0.4,1-1V4h2		V2h-3C18.4,2,18,2.4,18,3z"/>	<rect id="basket-goods" x="8" y="5" class="st0" width="7" height="7"/></g><g id="plus">	<polygon id="plus-ico" class="st0" points="18,13 18,11 13,11 13,6 11,6 11,11 6,11 6,13 11,13 11,18 13,18 13,13 	"/></g><g id="minus">	<rect id="minus-ico" x="6" y="11" class="st0" width="12" height="2"/></g><g id="country">	<path id="country-ico" class="st0" d="M12.5,2C8.4,2,5,5.4,5,9.5c0,5.5,5.4,10.2,7,11.3c0.1,0.1,0.3,0.2,0.5,0.2		c0.2,0,0.4-0.1,0.5-0.2c1.6-1.2,7-5.8,7-11.3C20,5.4,16.6,2,12.5,2z M12.5,12.5c-1.7,0-3-1.3-3-3c0-1.7,1.3-3,3-3s3,1.3,3,3		C15.5,11.2,14.2,12.5,12.5,12.5z"/></g><g id="search">	<path id="search-ico" class="st0" d="M20.3,21.7L15,16.5c-1.3,1-2.8,1.5-4.5,1.5C6.4,18,3,14.6,3,10.5S6.4,3,10.5,3S18,6.4,18,10.5		c0,1.7-0.6,3.3-1.5,4.5l5.2,5.2L20.3,21.7z M10.5,5C7.5,5,5,7.5,5,10.5S7.5,16,10.5,16s5.5-2.5,5.5-5.5S13.5,5,10.5,5z"/></g><g id="delete">	<path id="delete-ico" class="st0" d="M12,3c-5,0-9,4-9,9s4,9,9,9s9-4,9-9S17,3,12,3z M16.4,15.6l-0.7,0.7L12,12.7l-3.6,3.6		l-0.7-0.7l3.6-3.6L7.6,8.4l0.7-0.7l3.6,3.6l3.6-3.6l0.7,0.7L12.7,12L16.4,15.6z"/></g><g id="info">	<path id="info-ico" class="st0" d="M12,16h-1V9h1V16z M11.5,19c4.1,0,7.5-3.4,7.5-7.5S15.6,4,11.5,4S4,7.4,4,11.5S7.4,19,11.5,19		 M11.5,20C6.8,20,3,16.2,3,11.5S6.8,3,11.5,3S20,6.8,20,11.5S16.2,20,11.5,20L11.5,20z M11.5,8c-0.4,0-0.8-0.3-0.8-0.8		s0.3-0.8,0.8-0.8s0.8,0.3,0.8,0.8S11.9,8,11.5,8z"/></g><g id="menu">	<path id="menu-ico" class="st0" d="M22,13H2v-2h20V13z M17,16H2v2h15V16z M22,6H2v2h20V6z"/></g><g id="search">	<path id="search-ico" class="st0" d="M20.3,21.7L15,16.5c-1.3,1-2.8,1.5-4.5,1.5C6.4,18,3,14.6,3,10.5S6.4,3,10.5,3		S18,6.4,18,10.5c0,1.7-0.6,3.3-1.5,4.5l5.2,5.2L20.3,21.7z M10.5,5C7.5,5,5,7.5,5,10.5S7.5,16,10.5,16s5.5-2.5,5.5-5.5		S13.5,5,10.5,5z"/></g><g id="stability">	<path id="stability-ico" class="st0" d="M20.1,3.7c-1.5-0.1-4.7-0.6-7.5-2.5c-0.4-0.2-0.8-0.2-1.2,0c-2.8,1.9-6,2.4-7.5,2.5		C3.4,3.8,3,4.2,3,4.7v8.7c0,2.5,1.2,4.9,3.2,6.4c1.4,1,3.1,2.1,5,3c0.5,0.2,1.1,0.2,1.6,0c1.9-0.9,3.7-2,5-3c2-1.5,3.2-3.9,3.2-6.4		V4.7C21,4.2,20.6,3.8,20.1,3.7z M11.5,15.7l-3.4-3.4l0.7-0.7l2.6,2.6l4.6-4.6l0.7,0.7L11.5,15.7z"/></g><g id="support">	<path id="support-ico" class="st0" d="M12,1C5.9,1,1,5.9,1,12s4.9,11,11,11s11-4.9,11-11S18.1,1,12,1z M5,8c0-0.6,0.4-1,1-1h0.3		C7,4.1,9.3,2,12,2s5,2.1,5.7,5H18c0.6,0,1,0.4,1,1v1c0,0.6-0.4,1-1,1h-0.1c-0.4,1.4-1.5,2.5-2.9,2.9c0-0.1,0.1-0.2,0.1-0.4		c0-0.2-0.1-0.4-0.1-0.6C16.1,11.5,17,10.4,17,9c0-3.3-2.2-6-5-6S7,5.7,7,9c0,0.3,0,0.7,0.1,1H7H6.1H6c-0.6,0-1-0.4-1-1V8z M13,12.5		c0-0.3,0.2-0.5,0.5-0.5s0.5,0.2,0.5,0.5S13.8,13,13.5,13S13,12.8,13,12.5z M12,21c-3.4,0-6.4-1.9-7.9-4.7c0.1-0.2,0.3-0.4,0.5-0.5		l5.2-2.6C8.7,12.2,8,10.7,8,9c0-2.8,1.8-5,4-5s4,2.2,4,5c0,1.1-0.9,2-2,2h-0.5c-0.8,0-1.5,0.7-1.5,1.5s0.7,1.5,1.5,1.5H14		c0.5,0,1-0.1,1.5-0.3l4,2c0.2,0.1,0.4,0.3,0.5,0.5C18.4,19.1,15.4,21,12,21z"/></g><g id="panel">	<path id="panel-ico" class="st0" d="M6,16.5C6,16.8,5.8,17,5.5,17S5,16.8,5,16.5S5.2,16,5.5,16S6,16.2,6,16.5z M17.5,16		c-0.3,0-0.5,0.2-0.5,0.5s0.2,0.5,0.5,0.5s0.5-0.2,0.5-0.5S17.8,16,17.5,16z M22,5v14c0,1.1-0.9,2-2,2H3c-1.1,0-2-0.9-2-2V5		c0-1.1,0.9-2,2-2h17C21.1,3,22,3.9,22,5z M6,5h1V4H6V5z M4,5h1V4H4V5z M2,5h1V4H2V5z M7,16.5c0-0.7-0.4-1.2-1-1.4V9H5v6.1		c-0.6,0.2-1,0.8-1,1.4s0.4,1.2,1,1.4V19h1v-1.1C6.6,17.7,7,17.2,7,16.5z M13,11.5c0-0.7-0.4-1.2-1-1.4V9h-1v1.1		c-0.6,0.2-1,0.8-1,1.4s0.4,1.2,1,1.4V19h1v-6.1C12.6,12.7,13,12.2,13,11.5z M19,16.5c0-0.7-0.4-1.2-1-1.4V9h-1v6.1		c-0.6,0.2-1,0.8-1,1.4s0.4,1.2,1,1.4V19h1v-1.1C18.6,17.7,19,17.2,19,16.5z M21,6H2v1h19V6z M11.5,11c-0.3,0-0.5,0.2-0.5,0.5		c0,0.3,0.2,0.5,0.5,0.5s0.5-0.2,0.5-0.5C12,11.2,11.8,11,11.5,11z"/></g><g id="root">	<path id="root-ico" class="st0" d="M13,13h1v2h-1V13z M22,5v14c0,1.1-0.9,2-2,2H3c-1.1,0-2-0.9-2-2V5c0-1.1,0.9-2,2-2h17		C21.1,3,22,3.9,22,5z M6,5h1V4H6V5z M4,5h1V4H4V5z M2,5h1V4H2V5z M5,17H4v-6h1v-1H4c-0.6,0-1,0.4-1,1v6c0,0.6,0.4,1,1,1h1V17z		 M7,12H6c-0.6,0-1,0.4-1,1v3h1v-3h1V12z M11,13c0-0.6-0.4-1-1-1H9c-0.6,0-1,0.4-1,1v2c0,0.6,0.4,1,1,1h1c0.6,0,1-0.4,1-1V13z		 M15,13c0-0.6-0.4-1-1-1h-1c-0.6,0-1,0.4-1,1v2c0,0.6,0.4,1,1,1h1c0.6,0,1-0.4,1-1V13z M17,16h1v-1h-1v-1h1v-1h-1v-1h-1v3		C16,15.6,16.4,16,17,16z M20,11c0-0.6-0.4-1-1-1h-1v1h1v6h-1v1h1c0.6,0,1-0.4,1-1V11z M21,6H2v1h19V6z M9,15h1v-2H9V15z"/></g><g id="snapshots">	<path id="snapshots-ico" class="st0" d="M9.8,2.2C10.5,2.1,11.3,2,12,2c2.2,0,4.2,0.7,5.8,1.9L14.3,10L9.8,2.2z M11.4,9L7.9,2.9		C5.3,4,3.3,6.3,2.5,9H11.4z M14.9,13h7.1c0-0.3,0.1-0.7,0.1-1c0-2.6-1-5-2.6-6.8L14.9,13z M12.6,15l3.5,6.1		c2.6-1.2,4.6-3.4,5.4-6.1H12.6z M9.1,11H2.1C2,11.3,2,11.7,2,12c0,2.6,1,5,2.6,6.8L9.1,11z M9.7,14l-3.5,6.1C7.8,21.3,9.8,22,12,22		c0.7,0,1.5-0.1,2.2-0.2L9.7,14z"/></g><g id="flexibility">	<path id="flexibility-ico" class="st0" d="M11.5,7C9.6,7,8,5.4,8,3.5S9.6,0,11.5,0S15,1.6,15,3.5C15,3.8,14.8,4,14.5,4		S14,3.8,14,3.5C14,2.1,12.9,1,11.5,1S9,2.1,9,3.5S10.1,6,11.5,6C11.8,6,12,6.2,12,6.5S11.8,7,11.5,7z M20,10.7V22c0,1.1-0.9,2-2,2		H5c-1.1,0-2-0.9-2-2V10.5c0-1.3,0.6-2.4,1.6-3.2l2.8-2.1C8.1,6.9,9.6,8,11.5,8C12.3,8,13,7.3,13,6.5S12.3,5,11.5,5S10,4.3,10,3.5		c0-0.1,0-0.1,0-0.2c0.7-0.4,1.5-0.4,2.2,0l6,4C19.3,8.1,20,9.3,20,10.7z M14,12.5c0-0.3-0.2-0.5-0.5-0.5H12v-1h-1v1h-0.8		C9.6,12,9,12.6,9,13.2v1.5c0,0.7,0.6,1.2,1.2,1.2h2.2c0.3,0,0.5,0.2,0.5,0.5v1c0,0.3-0.2,0.5-0.5,0.5H9v0.5C9,18.8,9.2,19,9.5,19		H11v1h1v-1h0.5c0.8,0,1.5-0.7,1.5-1.5v-1c0-0.8-0.7-1.5-1.5-1.5h-2c-0.3,0-0.5-0.2-0.5-0.5v-1c0-0.3,0.2-0.5,0.5-0.5H14V12.5z"/></g><g id="speedy">	<path id="speedy-ico" class="st0" d="M23,1c0,0-7,0.1-13.7,6.1C8.2,6.9,5.4,6.8,3.4,8.9C1.5,10.8,1,12.9,1,14.4		c0,0.5,0.7,0.8,1,0.3c1.1-1.6,2.2-2.3,3.1-2.6c0.1,0.2,0.5,0.8,1,1.6l-1.5,0.8c-0.2,0.1-0.3,0.4-0.2,0.6c0.2,0.4,0.6,1.2,1.3,2		c-0.7-0.3-1.5-0.2-2.1,0.4C2.9,18.2,1,23,1,23s4.8-1.8,5.5-2.6c0.5-0.5,0.6-1.3,0.4-2.1c0.8,0.7,1.6,1.1,2,1.3		c0.2,0.1,0.5,0,0.6-0.2l0.8-1.5c0.7,0.5,1.3,0.8,1.6,1c-0.3,0.8-1,1.9-2.6,3.1c-0.5,0.3-0.2,1,0.3,1c1.5,0,3.7-0.5,5.6-2.4		c2-2,1.9-4.8,1.8-5.9C22.9,8,23,1,23,1z M5.5,19.5C5.1,19.9,4,20,4,20s0.1-1.1,0.5-1.5C4.9,18.1,6,18,6,18S5.9,19.1,5.5,19.5z		 M14,12c-1.1,0-2-0.9-2-2c0-1.1,0.9-2,2-2s2,0.9,2,2C16,11.1,15.1,12,14,12z M18,7c-0.6,0-1-0.4-1-1c0-0.6,0.4-1,1-1s1,0.4,1,1		C19,6.6,18.6,7,18,7z"/></g><g id="scalability">	<path id="scalability-ico" class="st0" d="M24,20.5c0,1.9-1.6,3.5-3.5,3.5c-0.8,0-9.5,0-9.5,0c-1.7,0-3-1.3-3-3s1.3-3,3-3h0.1		c0.5-2.3,2.5-4,4.9-4c2.1,0,3.8,1.2,4.6,3C22.5,17.1,24,18.6,24,20.5z M10.3,17.1c0.8-2.4,3.1-4.1,5.7-4.1c2.2,0,4.2,1.2,5.2,3.1		c0.6,0.1,1.1,0.3,1.6,0.6c0.1-0.4,0.2-0.8,0.2-1.2c0-2.5-2-4.5-4.4-4.5c-1-2.9-3.8-5-7.1-5c-3.6,0-6.7,2.6-7.3,6H4		c-2.2,0-4,1.8-4,4c0,2.2,1.8,4,4,4h3.1C7.5,18.5,8.8,17.3,10.3,17.1z M5.4,7.6L2.7,5H4V4H1v3h1V5.7l2.6,2.6L5.4,7.6z M19,4v1h1.3		l-2.6,2.6l0.7,0.7L21,5.7V7h1V4H19z M13.7,2.2L11.5,0L9.3,2.2L10,2.9l1-1V5h1V1.9l1,1L13.7,2.2z"/></g><g id="antihotlink">	<path id="antihotlink-ico" class="st0" d="M10.8,13.9c0.1,0.2,0.2,0.4,0.2,0.7c0,0.4-0.2,0.8-0.4,1.1l-1,1c-0.6,0.6-1.6,0.6-2.2,0		l-0.4,0.4l0.4-0.4C7.2,16.3,7,15.9,7,15.5c0-0.4,0.2-0.8,0.4-1.1l1-1c0.5-0.5,1.2-0.6,1.7-0.3l-1,1c-0.2,0.2-0.2,0.5,0,0.7		C9.2,15,9.4,15,9.5,15s0.3,0,0.4-0.1L10.8,13.9z M14.4,7.4l-1,1C13.2,8.7,13,9.1,13,9.5c0,0.2,0.1,0.5,0.2,0.7l1-1		c0.2-0.2,0.5-0.2,0.7,0s0.2,0.5,0,0.7l-1,1c0.6,0.3,1.3,0.2,1.7-0.3l1-1C16.8,9.3,17,8.9,17,8.5c0-0.4-0.2-0.8-0.4-1.1		C16,6.9,15,6.9,14.4,7.4z M21,4.7v8.7c0,2.5-1.2,4.9-3.2,6.4c-1.4,1-3.1,2.1-5,3c-0.5,0.2-1.1,0.2-1.6,0c-1.9-0.9-3.7-2-5-3		C4.2,18.4,3,16,3,13.5V4.7c0-0.5,0.4-0.9,0.9-1c1.5-0.1,4.7-0.6,7.5-2.5c0.4-0.2,0.8-0.2,1.2,0c2.8,1.9,6,2.4,7.5,2.5		C20.6,3.8,21,4.2,21,4.7z M18,8.5c0-0.7-0.3-1.3-0.7-1.8c-1-1-2.6-1-3.6,0l-1,1C12.3,8.2,12,8.8,12,9.5c0,0.5,0.2,1,0.4,1.4		l-1.5,1.5c-1-0.7-2.3-0.5-3.2,0.3l-1,1C6.3,14.2,6,14.8,6,15.5c0,0.7,0.3,1.3,0.7,1.7l0,0.1C7.2,17.8,7.9,18,8.5,18		c0.6,0,1.3-0.2,1.8-0.7l1-1c0.5-0.5,0.7-1.1,0.7-1.8c0-0.5-0.1-1-0.4-1.4l1.5-1.5c0.4,0.3,0.9,0.4,1.4,0.4c0.6,0,1.3-0.2,1.8-0.7		l1-1C17.7,9.8,18,9.2,18,8.5z"/></g><g id="variety">	<path id="variety-ico" class="st0" d="M16,19.5l-2.1,2.1l-0.7-0.7l0.9-0.9H7v1c0,0.6-0.4,1-1,1H3c-0.6,0-1-0.4-1-1v-3		c0-0.6,0.4-1,1-1h3c0.6,0,1,0.4,1,1v1h7.1l-0.9-0.9l0.7-0.7L16,19.5z M17.4,10.1l0.7,0.7L19,9.9V17h-1c-0.6,0-1,0.4-1,1v3		c0,0.6,0.4,1,1,1h3c0.6,0,1-0.4,1-1v-3c0-0.6-0.4-1-1-1h-1V9.9l0.9,0.9l0.7-0.7L19.5,8L17.4,10.1z M10.1,6.6l0.7-0.7L9.9,5H17v1		c0,0.6,0.4,1,1,1h3c0.6,0,1-0.4,1-1V3c0-0.6-0.4-1-1-1h-3c-0.6,0-1,0.4-1,1v1H9.9l0.9-0.9l-0.7-0.7L8,4.5L10.1,6.6z M6.6,13.9		l-0.7-0.7L5,14.1L5,7h1c0.6,0,1-0.4,1-1V3c0-0.6-0.4-1-1-1H3C2.4,2,2,2.4,2,3v3c0,0.6,0.4,1,1,1h1l0,7.1l-0.9-0.9l-0.7,0.7L4.5,16		L6.6,13.9z M16,14v-4c0-1.1-0.9-2-2-2h-4c-1.1,0-2,0.9-2,2v4c0,1.1,0.9,2,2,2h4C15.1,16,16,15.1,16,14z"/></g><g id="free">	<path id="free-ico" class="st0" d="M18.2,5.9l-4.5-3.5c-0.2-0.2-0.5-0.3-0.7-0.3V0.5C13,0.2,12.8,0,12.5,0S12,0.2,12,0.5v1.6		c-0.3,0.1-0.5,0.2-0.7,0.3L6.8,5.9C6.3,6.3,6,6.8,6,7.5V18c0,1.1,0.9,2,2,2h9c1.1,0,2-0.9,2-2V7.5C19,6.8,18.7,6.3,18.2,5.9z		 M12,3.1v1.4C12,4.8,12.2,5,12.5,5S13,4.8,13,4.5V3.1c0.6,0.2,1,0.8,1,1.4C14,5.3,13.3,6,12.5,6S11,5.3,11,4.5		C11,3.8,11.4,3.3,12,3.1z M15,10h-3.5c-0.3,0-0.5,0.2-0.5,0.5v1c0,0.3,0.2,0.5,0.5,0.5h2c0.8,0,1.5,0.7,1.5,1.5v1		c0,0.8-0.7,1.5-1.5,1.5H13v1h-1v-1h-1.5c-0.3,0-0.5-0.2-0.5-0.5V15h3.5c0.3,0,0.5-0.2,0.5-0.5v-1c0-0.3-0.2-0.5-0.5-0.5h-2.2		c-0.7,0-1.2-0.6-1.2-1.2v-1.5C10,9.6,10.6,9,11.2,9H12V8h1v1h1.5C14.8,9,15,9.2,15,9.5V10z"/></g><g id="domains-small">	<path id="domains-small-ico" class="st0" d="M18,12c0,1.1-0.9,2-2,2c-0.8,0-1.6-0.3-2.2-0.9L12.7,12l1.1-1.1		c0.6-0.6,1.4-0.9,2.2-0.9C17.1,10,18,10.9,18,12z M8,10c-1.1,0-2,0.9-2,2s0.9,2,2,2c0.8,0,1.6-0.3,2.2-0.9l1.1-1.1l-1.1-1.1		C9.6,10.3,8.8,10,8,10z M21,12c0,5-4,9-9,9s-9-4-9-9c0-5,4-9,9-9S21,7,21,12z M19,12c0-1.7-1.3-3-3-3c-1.1,0-2.1,0.4-2.9,1.2		L12,11.3l-1.1-1.1C10.1,9.4,9.1,9,8,9c-1.7,0-3,1.3-3,3s1.3,3,3,3c1.1,0,2.1-0.4,2.9-1.2l1.1-1.1l1.1,1.1c0.8,0.8,1.8,1.2,2.9,1.2		C17.7,15,19,13.7,19,12z"/></g></svg>